<svg width="26" height="26" viewBox="0 0 26 26" fill="none" xmlns="http://www.w3.org/2000/svg">
    <path fill-rule="evenodd" clip-rule="evenodd"
          d="M4 0C1.79086 0 0 1.79086 0 4V22C0 24.2091 1.79086 26 4 26H22C24.2091 26 26 24.2091 26 22V4C26 1.79086 24.2091 0 22 0H4ZM12.4143 17.2323C12.1987 17.5817 11.9014 17.7564 11.5222 17.7564C11.3364 17.7564 11.1691 17.7155 11.0204 17.6337C10.8717 17.5519 10.7268 17.4181 10.5855 17.2323L8.05422 14.1434C7.88323 13.9204 7.79774 13.6899 7.79774 13.452C7.79774 13.2067 7.88138 12.9985 8.04864 12.8275C8.21591 12.6566 8.42221 12.5711 8.66753 12.5711C8.82365 12.5711 8.9649 12.6008 9.09128 12.6603C9.21766 12.7198 9.34403 12.8313 9.47041 12.9948L11.4888 15.5819L15.7485 8.74623C15.9641 8.4117 16.228 8.24443 16.5402 8.24443C16.7707 8.24443 16.9788 8.31877 17.1647 8.46745C17.3506 8.61613 17.4435 8.81314 17.4435 9.05846C17.4435 9.18484 17.4175 9.30751 17.3654 9.42645C17.3134 9.5454 17.2539 9.65691 17.187 9.76099L12.4143 17.2323Z"
          fill="#E7E7E7" fill-opacity="0.22"/>
</svg>
