<svg width="18" height="18" viewBox="0 0 18 18" fill="none" xmlns="http://www.w3.org/2000/svg">
<g filter="url(#filter0_b_699_6195)">
<rect width="17.25" height="17.125" rx="8.5625" fill="white" fill-opacity="0.19"/>
<path d="M8.625 5C8.27985 5 8 5.27985 8 5.625C8 5.97015 8.27985 6.25 8.625 6.25C8.97015 6.25 9.25 5.97015 9.25 5.625C9.25 5.27985 8.97015 5 8.625 5ZM8.625 7.125C8.34888 7.125 8.125 7.34888 8.125 7.625V11.6255C8.12518 11.9016 8.349 12.1252 8.625 12.125C8.90094 12.1248 9.12518 11.901 9.125 11.625V7.625C9.125 7.34888 8.90112 7.125 8.625 7.125Z" fill="white"/>
<rect x="0.25" y="0.25" width="16.75" height="16.625" rx="8.3125" stroke="white" stroke-width="0.5"/>
</g>
<defs>
<filter id="filter0_b_699_6195" x="-34" y="-34" width="85.25" height="85.125" filterUnits="userSpaceOnUse" color-interpolation-filters="sRGB">
<feFlood flood-opacity="0" result="BackgroundImageFix"/>
<feGaussianBlur in="BackgroundImageFix" stdDeviation="17"/>
<feComposite in2="SourceAlpha" operator="in" result="effect1_backgroundBlur_699_6195"/>
<feBlend mode="normal" in="SourceGraphic" in2="effect1_backgroundBlur_699_6195" result="shape"/>
</filter>
</defs>
</svg>
